<?xml version="1.0" standalone="no"?>
<!DOCTYPE svg PUBLIC "-//W3C//DTD SVG 20010904//EN"
 "http://www.w3.org/TR/2001/REC-SVG-20010904/DTD/svg10.dtd">
<svg version="1.0" xmlns="http://www.w3.org/2000/svg"
 width="16.000000pt" height="16.000000pt" viewBox="0 0 16.000000 16.000000"
 preserveAspectRatio="xMidYMid meet">
<metadata>
Created by potrace 1.11, written by Peter Selinger 2001-2013
</metadata>
<g transform="translate(0.000000,16.000000) scale(0.002286,-0.002286)"
fill="#000000" stroke="none">
<path d="M2940 5758 l0 -663 -113 -49 c-206 -91 -362 -199 -527 -366 -122
-123 -217 -252 -294 -400 -49 -94 -111 -243 -121 -294 -3 -10 -7 -21 -9 -23
-3 -3 -289 -5 -635 -5 -582 0 -631 -1 -632 -16 -3 -51 -4 -989 -1 -999 2 -8
171 -11 649 -11 355 0 649 -4 653 -9 4 -4 13 -26 20 -48 21 -66 105 -224 164
-310 31 -44 66 -96 79 -115 40 -58 219 -233 303 -297 141 -105 320 -203 457
-248 l57 -19 0 -643 0 -643 513 0 513 0 -1 628 c0 345 1 634 3 643 2 9 31 25
70 39 276 96 563 306 751 550 99 128 211 327 242 428 12 40 14 42 53 43 23 0
322 1 666 2 l625 2 0 510 0 510 -643 2 c-354 0 -646 3 -648 6 -3 2 -18 42 -33
88 -122 359 -379 678 -713 887 -110 68 -195 107 -388 177 l-35 13 0 644 0 643
-512 3 -513 2 0 -662z m763 -1627 c38 -12 90 -34 115 -48 48 -26 172 -122 172
-132 0 -3 16 -24 36 -45 41 -46 106 -179 124 -251 21 -90 23 -195 5 -286 -9
-46 -22 -90 -27 -96 -6 -7 -7 -13 -3 -13 4 0 -10 -30 -30 -67 -92 -167 -217
-273 -390 -329 -63 -21 -102 -26 -185 -28 -58 0 -118 2 -135 5 -188 40 -331
134 -432 284 -147 219 -150 514 -7 734 35 55 168 191 187 191 5 0 20 9 33 19
28 22 137 65 199 80 72 16 262 6 338 -18z"/>
</g>
</svg>
